<svg width="16" height="16" viewBox="0 0 16 16" fill="none" xmlns="http://www.w3.org/2000/svg">
<rect x="0.75" y="0.75" width="14.5" height="14.5" rx="7.25" stroke="#AFB8C1" stroke-width="1.5"/>
<path d="M11.2008 11.2L9.06745 9.06665M9.77856 7.28888C9.77856 7.61572 9.71418 7.93937 9.5891 8.24133C9.46403 8.5433 9.2807 8.81767 9.04958 9.04879C8.81847 9.2799 8.54409 9.46323 8.24213 9.58831C7.94016 9.71339 7.61652 9.77777 7.28967 9.77777C6.96282 9.77777 6.63918 9.71339 6.33721 9.58831C6.03525 9.46323 5.76087 9.2799 5.52976 9.04879C5.29865 8.81767 5.11532 8.5433 4.99024 8.24133C4.86516 7.93937 4.80078 7.61572 4.80078 7.28888C4.80078 6.62878 5.063 5.99572 5.52976 5.52897C5.99652 5.06221 6.62958 4.79999 7.28967 4.79999C7.94976 4.79999 8.58282 5.06221 9.04958 5.52897C9.51634 5.99572 9.77856 6.62878 9.77856 7.28888Z" stroke="#AFB8C1" stroke-width="1.5" stroke-linecap="round" stroke-linejoin="round"/>
</svg>
